# xmcd
#
# Track frame offsets:
#	150
#	19500
#	58750
#	72660
#	102880
#	117045
#	151358
#	184073
#	204210
#	219375
#	231995
#	247058
#	273873
#
# Disc length: 3885 seconds
#
# Revision: 0
#
# Submitted via: none 0
#
DISCID=b40f2b0d
DTITLE= / 
DYEAR=
DGENRE=
TTITLE0=
TTITLE1=
TTITLE2=
TTITLE3=
TTITLE4=
TTITLE5=
TTITLE6=
TTITLE7=
TTITLE8=
TTITLE9=
TTITLE10=
TTITLE11=
TTITLE12=
EXTD=
EXTT0=
EXTT1=
EXTT2=
EXTT3=
EXTT4=
EXTT5=
EXTT6=
EXTT7=
EXTT8=
EXTT9=
EXTT10=
EXTT11=
EXTT12=
PLAYORDER=
